<svg xmlns="http://www.w3.org/2000/svg" viewBox="0 0 1000 1000"><path d="M500 990C229.4 990 10 770.6 10 500S229.4 10 500 10s490 219.4 490 490-219.4 490-490 490zm397.1-531.1c.8-.4 1.2-1.1 1.5-2.1.6 3.4 2.2 6.4 4.7 8.6.1.3-.1.2.1.7.2 0 .4-.2.6-.2 2.6 2.1 5.8 3.5 9.3 3.5 5.5 0 10.1-3.1 12.8-7.4.2.2.5.5.6.7 0-.5-.1-1-.2-1.5 1.2-2.2 2-4.6 2-7.2 0-8.5-6.9-15.3-15.3-15.3-5.4 0-9.9 2.9-12.6 7.1-.1-.1 0-.5-.3-.3.4-1.2-.7-4.1-2.4-7.3v15.9c.2 1.7-.3 3.3-.8 4.8zm-703.6-4.6c0-4.6-10.5-12.5-13.3-12.5 0-.8-4.3-10.3-5.9-10.3 0-3.2-11.2-17.5-13-11.2-1.2 4 8.5 9.5 8.5 14.2 1.8 0 9.4 14.4 10.9 16.9 16.6 28.1-12.4 8.9-12.4-3-3.7-1.8-9.6-16-9.6-19.8-2.2-1.7-8.6-15.4-8.1-15.4 0-8.9-4.9-13.2-14.7-13.2-.5-.9-8.7-12.5-8.9-12.5 0-3.7-6.6-15.1-10.3-16.9 0-7.6-3.9-17-2.2-24.9 0-8.3-.4-17.7-3.2-26.2-25.4 54.9-40 115.9-40 180.5 0 185 117.4 342.2 281.6 402.3.2-15.2 1.3-33.4 4.8-33.4 0-2.3 1.9-11.8 3.7-11.8 0-5.8.7-12.8 0-19.8-2.2-4.4 2.9-10 4.4-16.9 8.5-4.3 2.5-46.9 8.9-46.9 0-21.3 4.8-33.8 1.4-53.6 1.6 0-9.6-12-9.6-11.8-10.8 0-18.4-17.3-18.4-24.9-1-3.3-3.7-8.3-3.7-12.5 2.5 0-15.5-26.2-15.5-25.7-9.5-5.3.5-12.6 1.5-21.3-8.2-2.7.1-25 3.7-25 .4-2.8 1.8-4.7 4.4-5.8 1.8 7.3 10.4-3.6 3.7-3.6 0-4.8-.6-15.2 0-17.6 0-7.5-6.6-22.1-11.8-6.6-5.5-2.7-19.4-2.2-20.6-11 .9-4.3-7.9-13.1-11-14.7 2.9-7.5-14.9-17.6-21.3-17.6 0-1.6-3.4-.9-4.4-2.9-6.6 0-8.1-8.8-15.5-8.8-8.5 0-17.1-5.8-25-5.8-2.6-5.2-14.9-3.2-17.7-8.8-6.4 0-8.9-12.1-9.1-16.6-.3-5.5-4.6-24.6-12.3-24.6zm620.3-245.7c-.1.2.1.1-.2.7.5 0 1 .5 1.5.7-.4-.5-.8-.9-1.3-1.4zm9.3 10.1c1.1 2.1 1.9 4 1.6 5.2 1.1 0 1.6-.6 2.5-.8-1.4-1.5-2.8-2.9-4.1-4.4zm26.6 139.5c.5-13.2-11-11-14.7-18.4-3.8 0-5.2-2.9-10.3-2.9-3.3-1.1-6-.3-7.9 2.4-7.9 3-3.1-3.8-9-3.8.3-7.6-2.7-9.6-11.1-8.8-4.8 10.8-12.1 17.2-11 29.4 3.5.8 2.9 1.6 2.2 5.1 4.7.2 33.1-1.5 33.1-4.4 1 0 5.9 10.1 5.9 1.5 4 0 6 9.3 15.5 6.6 0 1.8 15.7-6.7 7.3-6.7zm1.5 156.3c.6-2.7-1.3-3.9-2.9-6.6 4.2 0-13.3-32.4-13.3-37.4-2.7-1.3-6.1-10.6-6.7-13.9-3.6-2.4-7.3-10.2-8.8-14.7-3.6-2.4-12.5-13.3-14-18.3 5.3.6 13.2 1.7 13.2-5.1-3.6 0-4.1-4.4-.7-4.4-1.1-4.5 2.4-7.7 3.2-11.3.9-4.3 2.7-10.8 2.7-15.9-5.1 0-6.3.9-10.3 2.2 0 3-9-.7-10.3-.7-1.9-3.9-15.9 5-19.8-2.9-6.3-5.7-4.6-10.1-6.7-18.2-1-4.1-6.6-4.3-10-5-9.6-1.9-2.7 11.4-3.2 14.5 5.9 0-3.7 7.3-3.7 11-9.9-2.1-6.6-13.2-12.5-16.1-1.7-2.9-.4-5.1-4.4-5.1 0-3.9 2.1-11-2.2-12.5 0-1.9-8.3-2.7-9.6-5.1-5.3 0-17.5-19.9-21.3-13.2-2.4 4.3 2 5.3 2.9 8.8 7.6-1.5 6.9 12.6 16.2 11 0 2 .2 4 .7 5.9 6.9-1.6 6.1 5.1 9.6 5.1-2.5 3.3-10.5-5.3-8.3 2 1.3 4.2.6 7.8-4.9 12 0-4.6-.4-16.9-5.1-16.9-3.2-6.5-12.9-4.9-17-11-3.3 0-4.6-10.3-10.3-11-1.1 1.5-5.1 2.9-6.6 2.9-3.1 6.2-20.6.6-20.6 1.5-.3.1-9.8 23.3-10.4 26.4-1.1 6.6-6.4 6.7-8 13-.8 3.1-20 1.7-20 4-8.3-2.8-15.5-8.6-15.5-17.6-.7 0 1.6-23.1 3-26.4 1.7.5 2 1 3 2.9 5.1-1.9 16.9 1.3 16.9-4.4 4.9.1 6.4 2.1 4.4 5.9 4.6.9 12.5 2 12.5-4.4-2.7 0-3-.2-3-2.9 8.8-9.2-6.6-17.4-6.6-22-3.1-1-9.5-7.8-5-5.3 3.8 2.1 17.8 6.5 12.3-2.8.4-.1.6-.4.7-.7 1.6 1.1 8.1 7.9 8.1 1.5 1.8 0 8.8-4.4 2.9-4.4.6-3.3.4-6.1.7-8.1 9.3 5 4.1-3.4 8.9-6.6 0 6.1 5-2.9 8.1-2.9 3.6-5.4 12-1.2 14-7.4-4.5-1.5-3.7-12.7-3.7-16.8 5.4.9 11.5-7.3 12.3-1.7.3 2.2.6 8.2 1.7 9 8.1 4.2 5.9-2.4 5.9-6.6-2.7 0-6.3-9.4-6.6-14-2.2.3-5.8 1.2-6.6 2.9-8 0-13.5-2.9-19.8-2.9-.5-1-8.1-9.6-7.3-9.6-4.5-7.7 4.5-5.5 5.9-5.8 0-7.3 30.3-6 31.7-17.6-10 0 10.3-16.9 10.3-16.8 6.8-5.8 10.4-10.8 18.8-11.4 3.6-.2 43.1-11.1 43.1-6.2 1.6.1 6.9.1 12.3.3C714.9 115 612.7 71.3 500 71.3c-109.1 0-208.4 41.1-284.1 108.3.7 1.5 1.2 3 1.2 4 4-.3 9.8-2.8 11.1 2.2-2 0-4-.3-5.9-.8 1.4 11.4-5 4.4-10.3 4.4 0-.3-2.4-1.2-4.9-1.9-1.6 1.5-3.3 3-5 4.5.2.5-.1.5.2 1.1 1.7 0 .8 2.7 5.7 4.3 5.7 1.9 11.9 3 17.9 4 4.8.8 7.6-.9 11.8-.9 0-.6 10.1-5.1 3-5.1 1-4-.8-5.1-5.2-5.1.4-4.3 10.6-1.5 14.7-1.5 3.2-5.4.1-4.7 2.9-9.6 3.4-6 7.4-.8 9.6-6.5 3.3 1.2 6.3 3 7.4 7.3 2.7 2.2 16.2 22.2 16.2 8.1 4.8 1.6 7.3 10.7 7.4 15.4 8.8-1.3 9.6-7.9 9.6-14.7 2 0-.7-3.3-.7-4.4 3.3-1.2 7.4 3.1 7.4-1.4 1.4 0 1.5 1.4 1.5 2.9 4.6.9 7.5-.5 10.3.5 1.9.7.9 10.7.1 14.2-1.1 4.5-9.6 4.5-9.6 6.6-9.7 7.2 11.4 11 14.7 15.4-2 0-9.6-1-9.6-1.4-4.8 0-16.4 5.1-20.6 1.4 5.9 0 7.9-7.1 8.9-13.9-5.5-2.1-11.9 1.3-13.5 6.8-2.6 9-8.5-.4-11.5 5.7-1.2.4-11.8 5.3-11.8 3.6-11.9 1.7-8.8 11.8-8.8 22.8 4.7 2.8 14.4 11 14 15.4 10.7 1.9 14.6 3 24.3 4.4.8 1.6 4 3 5.9 3.6 0 6.3 5.7 5.2 11 5.2 0-8.1 9.4 6.7 10.3 9.5-1.3 0 2.2 8.2 2.9 11-1.5-.5-1.9 0-1.5 1.5 4.7 1.7 12 1.2 13.3-3.7-4.5 0-3-5.1-3-8.1-4.6-3.1-3.9-9 .7-10.3 0 4.2 15.2-2.6 6.6-5.8 2.1-4.7 3.5-11.9.1-16-2.2-2.6-4.9 0-6-3.9 5.8-1.4 1.5-12.5 1.5-17.6 1.8-.7 6.6 1.2 6.6 0 5.7 0 15.1 7.2 18.4-1.5 9.5 4.3 1.9 8.4 11.8 5.1 0 2.3 11.1 13.2 12.5 13.2 0 .5-.3 3.7 2.2 3.7 0 2.4-1.5-1.3-1.5 2.9 1.4.2 8.9 1.5 8.9-1.4 4.7 0 8.1-5.8 8.1-10.3 3-1.9 8.2 16.1 11.8 16.1 2.6 4.1 11.1 10.1 11.1 13.9 1.8 1.8 3.6 1.3 3.6 6.6 2.2 0 6.6-8.8 6.6-.7 2.1 0 8.1 4.5 8.9 8.1-5.3 0-.3 5.1-3 5.1 0 5.1-11.4 1-13.9.7-3.5 15.8-24.8 4.4-37.6 8.5-6.8 2.1-19.8 17.1-20.5 24.5 8.2.1 11.8-7.1 19.1-9.6 6 0 7.1-3.6 12.5-5.1 0 1.5 1.5.7 1.5 2.2-10.5 0-4.1 6.8-1 11.7 1.9 3.1 4.1 4.5 6.5 5.5-1 1.8-1.8 3.6-2.5 5.5-2 .7-5.9 2.1-6.6 3.7-11.9 1.3-6 .5-5.2-2.3.4 1 4.7.1 4.5.1-.7-3.6-1.8-3.1-.7-5.1-6.4 0-9.6 2.9-14.7 2.9-.9 1.7-5.4 5.9-7.4 5.9-1.5 4.5-4.9 12.8-8.9 15.4 0-1.2-10.5 6.6-9.6 6.6-2.3 3.8-4.9 3.6-5.9 9.5-.7.4-3.7 10.2-3.7 11.7-4.6 3-6.2 15.4-14 15.4-4.7 9.4-13.3 8.2-13.3 20.5 2.9 2.9 4 16 4.9 20.1 1.1 5.2 2.8 10.6-4.1 10.7-.5-.8-5.3-8.1-4.4-8.1 0-3-3.7-12.7-5.9-15.8-2.9-4.1-8.3.6-12.5-1.1-1.8-3.6-14-4.4-18.4-4.4.7 2.7 2.7 3.6 2.9 6.6-3.6 1.5-5.7 3.1-9.4 2.6-6.4-.9-5.6-5.9-12.7-5.2-11.3 1.1-19.1 10.5-19.1 21.7-1.3 0-1.3 22 0 22 0 6.2 5.1 10.7 5.1 15.4 5 0 10.6 11 15.5 11 .6 3.9-2.5 4.5 5.9 4.4 0-.4 4.5-2.8 5.1-5.9-5.8-1.4 0-8.8 3.7-10.3 0 5.2 7.3-1.7 7.3-2.2.8-.3 8.1-2.9 8.1-2.9 0-5.9 5.5.6 1.5 2.9-4 0-3.7 6.6-5.9 6.6-.9 4.7-2.8 8.8-3.9 13.4-1.4 5.7 3.2 6.2 1.7 11.5 5.8 1.1 11.8 0 17.7 0 0-1-.2-2.1-.7-2.9 8.5 0 .7 16.1 5.9 16.1 0 6.1 2.9 10.8 2.9 14.7 4 2.6 6.4 6.2 5.1 11 4.9.6 15.4 1.9 15.4-4.4 7.4 0 8 5.1 7.4 10.3 14.8 0 5.5-14.7 11.7-14.7.6-2.4 1.6-2.8 3-1.3 3 1.6 5.3-3 7.7-4.5.8-.5 3.5-2.1 4-2.1 2.1 1.3 2.3.9 3.2 2.3 4 0 8.1-2.3 11.6-4.7 5.3.6 3.6 12 13.5 12.7 4 .3 13.2 1.4 16.6-1 .9-.6 4 2 4.3 3.1 3.3 0 3.1 2.9 4.5 2.8.3.6.8.9 1.5.7.4 1.3 3.1 1.6 4.4 5.1 0 3.2 6.6 3.7 6.6 5.8 4.7 2.4-1.6 3 5.7 5.2 4 1.3 7.7 3.3 12 3.6 1.4-5.2 5.8.7 8.1.7 1.2 2.4 1.8.6 2.9 2.9 6.8 5.7 2.3 3.5 5.1 9.6 3.3 2.1 4.3 9.6 5.2 13.9-2.6 0-.8 10.1-.8 11-3.2 0 8.1 6 8.1-1.5 4.7.8 7.7 5.8 11 5.8-1.9 4.4 5.1 7.8 5.1.8 7 .7 5.1 11.1 4.4 14.7 5.2 0 6.7-2.9 11.1-3.4 4.8-3 10.1-5.2 16.1-5.2 16.9 0 30.6 13.7 30.6 30.6 0 15.3-11.4 27.3-26 29.7-2 2.2-3.7 4.2-3.9 4.2 0 1.5-.3 16.1-.8 16.1 0 2.9-2.2 19.1-4.4 19.1 0 8.3-5.4 9.8-7.4 17.6-4.5 3.3-16.6 8.8-18.4 12.5-3.5 0-6 2.9-9.6 2.9-.5 1-8 8.1-6.6 8.1-.6 5.2.4 17.5-2.4 20.9-1.9 2.3-4.6 2-3.4 5.6-4.1 0 .2 2.9-6.3 2.9-4.1 0-11.4 5.8-11.6 10.8-.3 6.1-1.9 10.4-7.1 14.1 0 2.1-9.6 2.7-9.6 8.1.9 0 0 10 0 11-2.8-.1-9.8 2.8-11 5.1-9.6 0-8.5 1-14.7 5.1 0 1.3-.9 5.8-2.2 5.8 0 7.4-5.3.7-9.6 4.4 1.7 0 3.8 7.3 2.9 7.3 0 6.5-4 7-8.1 11.8-1.9 1.3-3.8 6.6-5.1 6.6 0 4.3-2.2 8.3-2.2 12.5.9 0 .1 1.9.7 3.6 2.1-.6 2.1-2.9 2.9-2.9 0-3.7 5.8 2.2 2.2 2.2-3 4.6-6.3 4.7-8.1 11-1.8 0-3.4 1.8-4.8 3.9 36.1 9.8 73.9 15.6 113.2 15.6 150.8 0 283.2-78 359.6-195.8.5-10.8 2.1-21.2 3.3-24.8 3 2.2 5.2 6.3 7.4 0-5.3-1-4-2.9-2.2-7.3 2 1.2 6.1 2.7 9.4 2.5 1-1.9 1.8-3.9 2.8-5.8-3-2.3 1.1-8.4 2.6-5.4.8-1.5 1.4-3 2.1-4.5-.3-.1-.2.1-.7 0 0-2.7.5-2.3 2.2-3.7 0 .3 0 .3.1.5 26.7-56 42.2-118.3 42.2-184.5 0-2.2-.3-4.3-.3-6.4-.8 3-2.3 6.2-4.4 7 0 1.9-21.9 11.5-20.6 15.4-3.9 0-17.4 3.9-19.9 8.8-2.7 0-13.7 3.9-14.7 5.9-13.4.7-10.8-15.5-17.4-15.5zm62.2-167.6h-16.3c-.1-.2-.2-.2-.4-.4-.8 0-4.3-7.8-2.9-9.6 1.3 0 1.9.1 2.6.2-1.4-3.4-2.9-6.7-4.4-10-3.3 2.3-6.2 5.1-10.8 5.4 0 1.3-6.5 13.9 0 13.9 0 .2.1.4.2.6-7.8.7-14 7.1-14 15.1 0 8.5 6.9 15.3 15.3 15.3h6c.4 2.8 1.9 5.2 7.2 6.4 1.7 7.1 14.3 9.6 16.2 2.2-5.3 0-3.6-5.1-3.1-8.6h4.3c8.4 0 15.3-6.9 15.3-15.3s-6.7-15.2-15.2-15.2zM868.8 546c1.1.1 8.1-.1 8.1-1.4 6.4 0 15.1-.9 21.3-3 0 9.5-8 14.8-6.6 24.2-5.3 0-3 5.5-3 7.3-3.4 2.1-4 6-8.1 8.1 0 4.3-9.6 11.3-12.4 14.9-3.2 4.1-12.8 11.1-14 16.3.3-1.2-17.5 18.6-13.4 18.6 0 3.7-5 33 1.5 33 0 2.6 5.5 27.2 2.2 27.2 0 7.9-5.1 12.7-5.1 19-2.5 1.7-6.1 2.7-7.3 5.2-4.5 0-6.7 9.6-8.8 9.6 0 10.2-3 17.8-3 29.3.8 0-5.9 16.5-5.9 17.6-5.4 3.6-19.1 16.7-19.1 23.5 0 0-9.6 13.4-11 15.4-2.9 0-25.1 4.2-25.1 5.9-4.7 0-16.9 3.7-19.8-.7 0-4.7-2.5-10.6-2.9-16.9-2.3 0-2.6-9.5-5.1-9.5 0-2-14.1-30.1-11.8-30.1 0-2.9-2.5-12.5-2.9-12.5 0-10.1-7.4-18.5-7.4-27.9-2.2 0-6.7-20.5-4.4-20.5 0-10.8 3.8-17.8 5.3-29.8 1.7-13.1-.8-21.1-3.1-30.4-1.3 0-5.5-7-5.9-8.8-5.9-3.9-8.1-11.7-8.1-19 3.9-4.4 5.4-21 4.4-26.4-7.4-3.5-10.4-2.2-18.4-2.2-4.7-9.5-36.6-3.6-45.7-3.6 0 5.2-22.2-1-24.3-5.1-5.4 0-16.2-11.5-16.2-16.9-5.9-4-15.4-23.6-15.4-30.1-5.1-2.6-3.6-12.5-.8-12.5.7-2.8-1.8-11.5-3-15.6-.9-3.1 3-6.4 3-10.1 0-10.2.2-14.9 6-25.9 1.8-3.4 4.1-6.6 5.8-10.9 3.1-7.7 4-.4 8.1-7.2 4-2 6.2-8.5 10.3-11.7 1.8-2.4 1.8-3.3 0-5.1.8 0 5.1-11.3 5.1-13.9 5.8-8 1.7-4.3 7.4-3.7 2.1-2.3 5.5-8.1 8.8-8.1 1.4-2.8 5.1-4.4 8.1-4.4 0 4.4 12-1.4 13.3-1.4 2.1-4.1 15.3-8.8 18.4-8.8 0-5 26.1 1.4 30.2.7v-2.2c5.6 1.3 15.7 23.7 14.7 28.6 4.3 0 8.3-.7 11.1 0 0 4.7 8.9 5.9 13 6.1 5.7.3 22.3-.6 22.3-8.3 4.4 0 8.3 3.1 7.4 8.1 5 .6 34.5 1.1 32.4 7.3 4.3 0 5.4 7.4 9.6 7.4-.8 5.1 5.1 18.3 9.6 18.3 0 4.4 2.8 12.5 6.6 15.4 2.1 6.3 9 19.6 15.4 23.5-2.8 5.2 4.2 9.5 5.9 14.7-.4 0 1.5 7.7 3.6 8.8 0 5.2 11 26.4 17 26.4.3 2.5-5.7 3.6 2.1 4.2zm-159-164.3c1.1-4.4 3.7-1 6.1-.2 5.7 1.8 3.7-.1 7.9-2 0 12-6.8 2.9-14 2.2zm-15.5-22c3 0 3.8 13.5-4.4 11 0-3.3-2.1-9.5 2.2-9.5 1.3 5.2 2.2 3 2.2-1.5zm-3.6-8.8c3.4 1.5 4.9 1 4.4-1.5 4.5 1.5-.6 4.7-1.5 8.1-2.3-2.3-1.6-3.1-2.9-6.6zm-78.8-65.3c-7.2-1.9 7.4-4 8.1-5.8-2.4 0-4.1-2.5-3.2-4.7 1.1-2.5 2.9 3 5.4 1.8 3-.3 8.8-4.7 5.8 3.8-3.1 8.7-5.8 15.1-16.9 15.2-3.9-4-.1-6.1.8-10.3zm27.3-30.1c5.9 0 .7 4.4-.6 4.4 1 .4-.2 4-.2 5.1 5.5-.1 5.6-3.4 9.6-4.4-.8 4.9-6.3 5.9-.9 10.1 2.8 2.2 5.8 4.9 4.6 8.3 7 0 8.1 6.7 6.6 14.7 3.9 0 3.7.2 3.7-3.7 3.8 1 3.5 4.4 0 4.4-3.5 6.9-12.6 6.6-19.1 6.6-.1-5.3-1.1-5.7-6-4.2-6.7 2.1-1.5-5.4-1.3-9 .7 0 15.3.7 6.6-2.2-.5-7.9-2.2-10.3-9.6-10.3 0-5.4-1.9-5-2.8-10.9-1.3-8.7 6.8.6 9.4-8.9zm-2.3 47.7c0 1.8-3.7 3.2-4.4.7.7.2 1 0 .7-.7h3.7zm-60.3-78.8H546c-8.5 0-15.3-6.9-15.3-15.3s6.9-15.3 15.3-15.3h30.6c8.5 0 15.3 6.9 15.3 15.3s-6.9 15.3-15.3 15.3zm-178.5 271c1.7 0 3.7.7 3.7 2.2-2.2 0-5.1 2.1-3.7-2.2zm-27.9 1.5c-1.2 2.3-11.1 1.9-12.5-.8 3.7 0 6.5 1.5 10.3 0 0-2-1.7-3.6-2.9-5.8 4 0 8.5 3.1 14 2.9 0-3.4-1.5.7 0-3.7 2.3.6 7.8 5.8 8.1 8.1-8.1-.8-8.5-.7-17-.7zm-32.4-17.6c-3.8 0-11-3.3-13.3-6.6 3.6.2 7.3 1.7 9.6-2.2 9.3.9 10.2 7.4 17.7 7.4 1.4 2.5 9.4 8.2 1.7 8.9-5.9.5-13.2-2.7-15.7-7.5zm5.9 20.5c-2.7 0-7.2 1.2-5.1-4.4 3.6.5 5.3 2 5.1 4.4zm5.1-.7c-1.5.2-2.9.5-4.4.7.5-3.4 3.7-7.2 4.4-.7zm27.3 32.3c-.6 2.1-.5 2.2-2.9 2.2.2-.9.5-1.9.7-2.9.7.2 1.4.4 2.2.7zm-66.3-60.9c.7.2 1.5.5 2.2.7.9 3.6 2.9 1.8 5.1.7.1 4.3-9.8 5.5-7.3-1.4z"/></svg>